<svg width="109" height="37" viewBox="0 0 109 37" xmlns="http://www.w3.org/2000/svg"><title>logo</title><desc>Created with Sketch Beta.</desc><path d="M.12 36.64l2.407-27.424h7.196l-2.407 27.424h-7.196zm2.652-30.216l.565-6.424h7.196l-.565 6.424h-7.196zm7.047 30.216l1.768-20.432c.196-2.125 1.007-3.846 2.431-5.164 1.424-1.318 3.43-1.977 6.017-1.977h2.358c2.685 0 4.601.642 5.747 1.927h.196c1.31-1.285 3.266-1.927 5.87-1.927h2.382c2.21 0 3.962.638 5.256 1.915 1.293 1.277 1.94 2.862 1.94 4.756 0 .84-.057 1.886-.172 3.138l-1.547 17.764h-7.196l1.621-18.53c.033-.445.049-.782.049-1.013 0-.544-.205-.914-.614-1.112-.262-.132-.851-.198-1.768-.198-.77 0-1.318.016-1.645.049-.77.099-1.187.609-1.252 1.532l-1.719 19.271h-7.196l1.621-18.53c.033-.445.049-.782.049-1.013 0-.544-.205-.914-.614-1.112-.262-.132-.851-.198-1.768-.198-.802 0-1.367.016-1.695.049-.77.099-1.187.609-1.252 1.532l-1.67 19.271h-7.196zm35.618-9.809l.909-10.673c.131-1.861.708-3.397 1.731-4.608 1.023-1.211 2.345-1.989 3.966-2.335.966-.198 2.922-.296 5.87-.296 2.914 0 4.879.181 5.894.544 2.718.972 4.077 3.014 4.077 6.127 0 .741-.065 1.787-.196 3.138l-.958 10.673c-.131 1.861-.7 3.397-1.707 4.608-1.007 1.211-2.321 1.989-3.942 2.335-.966.198-2.922.296-5.87.296-2.914 0-4.879-.181-5.894-.544-2.718-.988-4.077-3.031-4.077-6.127 0-.741.065-1.787.196-3.138zm7.097 1.878c0 .511.205.848.614 1.013.295.132 1.179.198 2.652.198 1.179 0 2.038-.033 2.579-.099.77-.099 1.187-.576 1.252-1.433l.86-9.858c.065-.675.098-1.248.098-1.717 0-.469-.205-.795-.614-.976-.295-.132-1.162-.198-2.603-.198-1.212 0-2.087.033-2.628.099-.77.099-1.187.576-1.252 1.433l-.86 9.858c-.065.675-.098 1.235-.098 1.68zm33.781-1.878l.909-10.673c.131-1.861.708-3.397 1.731-4.608 1.023-1.211 2.345-1.989 3.966-2.335.966-.198 2.922-.296 5.87-.296 2.914 0 4.879.181 5.894.544 2.718.972 4.077 3.014 4.077 6.127 0 .741-.065 1.787-.196 3.138l-.958 10.673c-.131 1.861-.7 3.397-1.707 4.608-1.007 1.211-2.321 1.989-3.942 2.335-.966.198-2.922.296-5.87.296-2.914 0-4.879-.181-5.894-.544-2.718-.988-4.077-3.031-4.077-6.127 0-.741.065-1.787.196-3.138zm7.097 1.878c0 .511.205.848.614 1.013.295.132 1.179.198 2.652.198 1.179 0 2.038-.033 2.579-.099.77-.099 1.187-.576 1.252-1.433l.86-9.858c.065-.675.098-1.248.098-1.717 0-.469-.205-.795-.614-.976-.295-.132-1.162-.198-2.603-.198-1.212 0-2.087.033-2.628.099-.77.099-1.187.576-1.252 1.433l-.86 9.858c-.065.675-.098 1.235-.098 1.68zm-23.897-2.174l2.063-23.743h7.171l-.54 6.275h7.147l-.614 6.77h-7.147l-1.007 11.538c-.033.445-.049.873-.049 1.285 0 .478.205.815.614 1.013.327.165 1.195.247 2.603.247h3.831l-.614 6.72h-4.15c-2.521 0-4.265-.148-5.231-.445-2.865-.873-4.298-2.965-4.298-6.275 0-.906.074-2.034.221-3.385z" fill="#333D47"/></svg>