<?xml version="1.0" encoding="UTF-8" standalone="no"?>
<svg width="214px" height="72px" viewBox="0 0 214 72" version="1.1" xmlns="http://www.w3.org/2000/svg" xmlns:xlink="http://www.w3.org/1999/xlink">
    <!-- Generator: Sketch Beta 3.7.2 (28276) - http://www.bohemiancoding.com/sketch -->
    <title>Shape</title>
    <desc>Created with Sketch Beta.</desc>
    <defs></defs>
    <g id="Page-3" stroke="none" stroke-width="1" fill="none" fill-rule="evenodd">
        <g id="logo-dark" fill="#FFFFFF">
            <g id="Page-1">
                <g>
                    <g id="logo-dark">
                        <g id="Page-1">
                            <path d="M0.086491115,71.892415 L4.82490644,18.0821786 L18.9918012,18.0821786 L14.2533858,71.892415 L0.086491115,71.892415 L0.086491115,71.892415 L0.086491115,71.892415 Z M5.30841819,12.6041995 L6.42049526,0 L20.5873901,0 L19.475313,12.6041995 L5.30841819,12.6041995 L5.30841819,12.6041995 L5.30841819,12.6041995 Z M19.1825012,71.892415 L22.663786,31.801365 C23.0505974,27.6322627 24.6461702,24.2550174 27.4505524,21.6695276 C30.2549348,19.084038 34.2035746,17.7913124 39.2965908,17.7913124 L43.9383038,17.7913124 C49.2247254,17.7913124 52.9960796,19.0517198 55.252479,21.5725724 L55.6392884,21.5725724 C58.2180307,19.0517198 62.0699693,17.7913124 67.1952196,17.7913124 L71.8852838,17.7913124 C76.2369115,17.7913124 79.6859277,19.0436403 82.2324356,21.5483334 C84.778944,24.0530267 86.0521787,27.1636474 86.0521787,30.8802889 C86.0521787,32.5285386 85.93936,34.5807403 85.7137204,37.0369557 L82.6675962,71.892415 L68.5007015,71.892415 L71.6918791,35.5341472 C71.7563478,34.6615443 71.7885815,33.9990226 71.7885815,33.5465619 C71.7885815,32.4800474 71.3856591,31.7528892 70.579802,31.3650657 C70.0640536,31.1065168 68.9036369,30.9772442 67.0985174,30.9772442 C65.5835062,30.9772442 64.503674,31.0095624 63.8589885,31.0741996 C62.3439775,31.2681115 61.5220156,32.2699736 61.3930786,34.0798166 L58.0084961,71.892415 L43.8416014,71.892415 L47.032779,35.5341472 C47.0972476,34.6615443 47.1294814,33.9990226 47.1294814,33.5465619 C47.1294814,32.4800474 46.7265589,31.7528892 45.9207018,31.3650657 C45.4049534,31.1065168 44.2445368,30.9772442 42.4394173,30.9772442 C40.8599376,30.9772442 39.7478717,31.0095624 39.1031861,31.0741996 C37.5881749,31.2681115 36.7662132,32.2699736 36.637276,34.0798166 L33.3493961,71.892415 L19.1825012,71.892415 L19.1825012,71.892415 L19.1825012,71.892415 Z M89.306409,52.646772 L91.0954025,31.7044095 C91.3532773,28.0524052 92.4895183,25.038739 94.5041607,22.6633204 C96.5188031,20.2879015 99.1216819,18.7608697 102.312875,18.0821786 C104.214698,17.6943552 108.066637,17.5004463 113.868807,17.5004463 C119.606508,17.5004463 123.474564,17.8559458 125.473089,18.5669555 C130.82398,20.4737541 133.499385,24.4812031 133.499385,30.5894228 C133.499385,32.0437606 133.37045,34.0959624 133.112575,36.7460894 L131.22688,57.6884518 C130.969006,61.3404561 129.84888,64.3541224 127.866472,66.729541 C125.884064,69.1049598 123.297302,70.6319918 120.106109,71.3106828 C118.204286,71.6985063 114.352348,71.892415 108.550177,71.892415 C102.812476,71.892415 98.9444208,71.5369156 96.9458949,70.825906 C91.5950044,68.8867886 88.9195998,64.8793396 88.9195998,58.8034387 C88.9195998,57.3491007 89.048535,55.296899 89.306409,52.646772 L89.306409,52.646772 L89.306409,52.646772 L89.306409,52.646772 Z M103.279899,56.3310764 C103.279899,57.3329538 103.682822,57.9954754 104.488679,58.3186617 C105.068895,58.5772106 106.80952,58.7064833 109.710606,58.7064833 C112.031474,58.7064833 113.723748,58.6418471 114.787479,58.5125724 C116.30249,58.3186608 117.124452,57.3814348 117.253389,55.7008665 L118.945681,36.358268 C119.074618,35.0332044 119.139085,33.9101492 119.139085,32.9890684 C119.139085,32.0679876 118.736163,31.4297045 117.930306,31.0741996 C117.350089,30.8156507 115.641698,30.6863782 112.805081,30.6863782 C110.419744,30.6863782 108.695237,30.7510143 107.631505,30.8802889 C106.116494,31.0742006 105.294532,32.0114265 105.165595,33.691995 L103.473304,53.0345935 C103.344367,54.3596569 103.279899,55.4584736 103.279899,56.3310764 L103.279899,56.3310764 L103.279899,56.3310764 L103.279899,56.3310764 Z M169.787517,52.646772 L171.576511,31.7044095 C171.834385,28.0524052 172.970626,25.038739 174.985268,22.6633204 C176.999911,20.2879015 179.60279,18.7608697 182.793984,18.0821786 C184.695806,17.6943552 188.547744,17.5004463 194.349915,17.5004463 C200.087616,17.5004463 203.955672,17.8559458 205.954198,18.5669555 C211.305088,20.4737541 213.980492,24.4812031 213.980492,30.5894228 C213.980492,32.0437606 213.851558,34.0959624 213.593683,36.7460894 L211.707987,57.6884518 C211.450112,61.3404561 210.329988,64.3541224 208.347581,66.729541 C206.365172,69.1049598 203.77841,70.6319918 200.587216,71.3106828 C198.685394,71.6985063 194.833455,71.892415 189.031285,71.892415 C183.293584,71.892415 179.425528,71.5369156 177.427003,70.825906 C172.076113,68.8867886 169.400707,64.8793396 169.400707,58.8034387 C169.400707,57.3491007 169.529642,55.296899 169.787517,52.646772 L169.787517,52.646772 L169.787517,52.646772 L169.787517,52.646772 Z M183.761007,56.3310764 C183.761007,57.3329538 184.163929,57.9954754 184.969786,58.3186617 C185.550004,58.5772106 187.290629,58.7064833 190.191713,58.7064833 C192.512581,58.7064833 194.204855,58.6418471 195.268587,58.5125724 C196.783598,58.3186608 197.605559,57.3814348 197.734498,55.7008665 L199.426788,36.358268 C199.555725,35.0332044 199.620193,33.9101492 199.620193,32.9890684 C199.620193,32.0679876 199.217271,31.4297045 198.411412,31.0741996 C197.831197,30.8156507 196.122805,30.6863782 193.286189,30.6863782 C190.900852,30.6863782 189.176344,30.7510143 188.112613,30.8802889 C186.597602,31.0742006 185.77564,32.0114265 185.646703,33.691995 L183.954412,53.0345935 C183.825475,54.3596569 183.761007,55.4584736 183.761007,56.3310764 L183.761007,56.3310764 L183.761007,56.3310764 L183.761007,56.3310764 Z M136.712607,52.0650397 L140.774106,5.47797902 L154.892649,5.47797902 L153.828924,17.7913124 L167.899117,17.7913124 L166.690337,31.0741996 L152.620145,31.0741996 L150.637747,53.7132812 C150.573277,54.5858839 150.541044,55.4261556 150.541044,56.234121 C150.541044,57.1713611 150.943967,57.833883 151.749824,58.2217063 C152.394509,58.5448926 154.1029,58.7064833 156.875048,58.7064833 L164.417832,58.7064833 L163.209052,71.892415 L155.037703,71.892415 C150.073624,71.892415 146.640726,71.6015518 144.738903,71.0198167 C139.097904,69.3069297 136.277447,65.2025263 136.277447,58.7064833 C136.277447,56.928959 136.422499,54.7151665 136.712607,52.0650397 L136.712607,52.0650397 L136.712607,52.0650397 L136.712607,52.0650397 Z" id="Shape"></path>
                        </g>
                    </g>
                </g>
            </g>
        </g>
    </g>
</svg>