<?xml version="1.0" encoding="UTF-8" standalone="no"?>
<svg width="109px" height="37px" viewBox="0 0 109 37" version="1.1" xmlns="http://www.w3.org/2000/svg" xmlns:xlink="http://www.w3.org/1999/xlink" xmlns:sketch="http://www.bohemiancoding.com/sketch/ns">
    <!-- Generator: Sketch 3.3 (11970) - http://www.bohemiancoding.com/sketch -->
    <title>icon white</title>
    <desc>Created with Sketch.</desc>
    <defs></defs>
    <g id="Page-1" stroke="none" stroke-width="1" fill="none" fill-rule="evenodd" sketch:type="MSPage">
        <g id="icon-white" sketch:type="MSLayerGroup" fill="#FFFFFF">
            <g id="Page-1" sketch:type="MSShapeGroup">
                <g id="logo-dark">
                    <g id="Page-1">
                        <path d="M0.119995117,36.6400146 L2.52675014,9.21559372 L9.72245648,9.21559372 L7.31570143,36.6400146 L0.119995117,36.6400146 L0.119995117,36.6400146 Z M2.77233738,6.42373823 L3.33718805,0 L10.5328944,0 L9.96804372,6.42373823 L2.77233738,6.42373823 L2.77233738,6.42373823 Z M9.8193176,36.6400146 L11.5875458,16.2075857 C11.7840166,14.0828001 12.5944464,12.3615849 14.0188595,11.0438884 C15.4432727,9.72619197 17.4488818,9.06735359 20.0357471,9.06735359 L22.3933847,9.06735359 C25.0784853,9.06735359 26.9940467,9.709721 28.1401262,10.9944751 L28.336596,10.9944751 C29.6464012,9.709721 31.6028934,9.06735359 34.2061312,9.06735359 L36.5883275,9.06735359 C38.7986238,9.06735359 40.550462,9.70560326 41.8438946,10.9821217 C43.1373274,12.2586402 43.7840339,13.84397 43.7840339,15.7381587 C43.7840339,16.5781902 43.7267306,17.6240961 43.6121228,18.8759078 L42.0649231,36.6400146 L34.8692168,36.6400146 L36.4900926,18.1100005 C36.5228378,17.6652779 36.5392101,17.3276233 36.5392101,17.0970264 C36.5392101,16.5534766 36.3345561,16.18288 35.9252419,15.9852255 C35.6632809,15.8534559 35.0738774,15.787572 34.1570138,15.787572 C33.3875032,15.787572 32.8390305,15.804043 32.5115792,15.8369854 C31.7420687,15.9358127 31.3245745,16.4464124 31.2590843,17.3688 L29.5399735,36.6400146 L22.3442672,36.6400146 L23.965143,18.1100005 C23.9978882,17.6652779 24.0142605,17.3276233 24.0142605,17.0970264 C24.0142605,16.5534766 23.8096065,16.18288 23.4002923,15.9852255 C23.1383313,15.8534559 22.5489278,15.787572 21.6320642,15.787572 C20.8298085,15.787572 20.2649635,15.804043 19.9375122,15.8369854 C19.1680016,15.9358127 18.7505075,16.4464124 18.6850172,17.3688 L17.015024,36.6400146 L9.8193176,36.6400146 L9.8193176,36.6400146 Z M45.4369357,26.8314605 L46.3456085,16.1581723 C46.4765893,14.296926 47.0537134,12.7610091 48.0769987,11.5503755 C49.100284,10.3397418 50.4223487,9.56148905 52.0432326,9.21559372 C53.0092142,9.01793925 54.9657062,8.91911346 57.9127678,8.91911346 C60.8270843,8.91911346 62.7917628,9.10029403 63.8068616,9.46266058 C66.5247076,10.4344617 67.8836103,12.4768606 67.8836103,15.5899186 C67.8836103,16.3311228 67.818121,17.3770287 67.6871402,18.7276676 L66.7293502,29.4009558 C66.5983698,31.2622021 66.0294313,32.798119 65.0225185,34.0087526 C64.0156058,35.2193863 62.7017272,35.9976391 61.0808433,36.3435344 C60.1148621,36.5411889 58.1583701,36.6400146 55.2113081,36.6400146 C52.2969915,36.6400146 50.3323135,36.4588341 49.3172142,36.0964676 C46.5993683,35.1081952 45.240466,33.0657963 45.240466,29.9692096 C45.240466,29.2280053 45.3059553,28.1820994 45.4369357,26.8314605 L45.4369357,26.8314605 L45.4369357,26.8314605 Z M52.5344073,28.7091686 C52.5344073,29.219776 52.7390614,29.5574306 53.1483755,29.7221427 C53.4430814,29.8539123 54.3271866,29.9197962 55.8007177,29.9197962 C56.9795424,29.9197962 57.839089,29.8868543 58.3793835,29.8209694 C59.1488941,29.7221422 59.5663883,29.2444844 59.6318785,28.3879817 L60.4914341,18.5300142 C60.5569243,17.8546947 60.589669,17.2823289 60.589669,16.8128995 C60.589669,16.3434701 60.3850149,16.0181687 59.9757008,15.8369854 C59.6809945,15.7052158 58.8132618,15.639332 57.3724759,15.639332 C56.160906,15.639332 55.2849873,15.6722738 54.7446924,15.7381587 C53.9751818,15.8369859 53.5576875,16.3146437 53.4921973,17.1711465 L52.6326422,27.029114 C52.567152,27.7044334 52.5344073,28.264446 52.5344073,28.7091686 L52.5344073,28.7091686 L52.5344073,28.7091686 Z M86.3152248,26.8314605 L87.2238976,16.1581723 C87.354878,14.296926 87.9320021,12.7610091 88.9552874,11.5503755 C89.9785727,10.3397418 91.3006378,9.56148905 92.9215217,9.21559372 C93.8875029,9.01793925 95.8439949,8.91911346 98.7910569,8.91911346 C101.705373,8.91911346 103.670052,9.10029403 104.685151,9.46266058 C107.402997,10.4344617 108.761899,12.4768606 108.761899,15.5899186 C108.761899,16.3311228 108.69641,17.3770287 108.565429,18.7276676 L107.607639,29.4009558 C107.476658,31.2622021 106.90772,32.798119 105.900808,34.0087526 C104.893895,35.2193863 103.580016,35.9976391 101.959132,36.3435344 C100.993151,36.5411889 99.0366588,36.6400146 96.0895972,36.6400146 C93.1752807,36.6400146 91.2106022,36.4588341 90.1955034,36.0964676 C87.4776574,35.1081952 86.1187547,33.0657963 86.1187547,29.9692096 C86.1187547,29.2280053 86.184244,28.1820994 86.3152248,26.8314605 L86.3152248,26.8314605 L86.3152248,26.8314605 Z M93.412696,28.7091686 C93.412696,29.219776 93.6173501,29.5574306 94.0266642,29.7221427 C94.3213705,29.8539123 95.2054758,29.9197962 96.6790064,29.9197962 C97.8578311,29.9197962 98.7173777,29.8868543 99.2576726,29.8209694 C100.027183,29.7221422 100.444677,29.2444844 100.510168,28.3879817 L101.369723,18.5300142 C101.435213,17.8546947 101.467958,17.2823289 101.467958,16.8128995 C101.467958,16.3434701 101.263304,16.0181687 100.853989,15.8369854 C100.559284,15.7052158 99.6915505,15.639332 98.250765,15.639332 C97.0391952,15.639332 96.163276,15.6722738 95.6229815,15.7381587 C94.8534709,15.8369859 94.4359767,16.3146437 94.3704865,17.1711465 L93.5109309,27.029114 C93.4454407,27.7044334 93.412696,28.264446 93.412696,28.7091686 L93.412696,28.7091686 L93.412696,28.7091686 Z M69.5156831,26.5349803 L71.5786161,2.79185546 L78.7497635,2.79185546 L78.2094716,9.06735359 L85.3560608,9.06735359 L84.7420926,15.8369854 L77.5955038,15.8369854 L76.5885961,27.3750076 C76.5558506,27.8197301 76.5394785,28.2479751 76.5394785,28.6597552 C76.5394785,29.1374202 76.7441326,29.4750749 77.1534467,29.6727293 C77.4808981,29.8374414 78.3486308,29.9197962 79.7566716,29.9197962 L83.5878325,29.9197962 L82.9738643,36.6400146 L78.8234398,36.6400146 C76.3020648,36.6400146 74.558413,36.491776 73.5924314,36.1952943 C70.7272325,35.3223204 69.2946548,33.2305086 69.2946548,29.9197962 C69.2946548,29.0138798 69.3683302,27.8856191 69.5156831,26.5349803 L69.5156831,26.5349803 L69.5156831,26.5349803 Z" id="Shape"></path>
                    </g>
                </g>
            </g>
        </g>
    </g>
</svg>